HIERARCHY
ROOT Hips
{
	OFFSET 0.00000 0.00000 0.00000
	CHANNELS 6 Xposition Yposition Zposition Zrotation Yrotation Xrotation 
	JOINT LHipJoint
	{
		OFFSET 0 0 0
		CHANNELS 3 Zrotation Yrotation Xrotation
		JOINT LeftUpLeg
		{
			OFFSET 1.39187 -1.60231 0.69152
			CHANNELS 3 Zrotation Yrotation Xrotation
			JOINT LeftLeg
			{
				OFFSET 2.43314 -6.68499 0.00000
				CHANNELS 3 Zrotation Yrotation Xrotation
				JOINT LeftFoot
				{
					OFFSET 2.32059 -6.37578 0.00000
					CHANNELS 3 Zrotation Yrotation Xrotation
					JOINT LeftToeBase
					{
						OFFSET 0.23021 -0.63250 1.71305
						CHANNELS 3 Zrotation Yrotation Xrotation
						End Site
						{
							OFFSET 0.00000 -0.00000 0.91647
						}
					}
				}
			}
		}
	}
	JOINT RHipJoint
	{
		OFFSET 0 0 0
		CHANNELS 3 Zrotation Yrotation Xrotation
		JOINT RightUpLeg
		{
			OFFSET -1.19407 -1.60231 0.69152
			CHANNELS 3 Zrotation Yrotation Xrotation
			JOINT RightLeg
			{
				OFFSET -2.44411 -6.71513 0.00000
				CHANNELS 3 Zrotation Yrotation Xrotation
				JOINT RightFoot
				{
					OFFSET -2.31924 -6.37207 0.00000
					CHANNELS 3 Zrotation Yrotation Xrotation
					JOINT RightToeBase
					{
						OFFSET -0.19473 -0.53502 1.87724
						CHANNELS 3 Zrotation Yrotation Xrotation
						End Site
						{
							OFFSET -0.00000 -0.00000 0.98293
						}
					}
				}
			}
		}
	}
	JOINT LowerBack
	{
		OFFSET 0 0 0
		CHANNELS 3 Zrotation Yrotation Xrotation
		JOINT Spine
		{
			OFFSET -0.01120 1.87307 0.09613
			CHANNELS 3 Zrotation Yrotation Xrotation
			JOINT Spine1
			{
				OFFSET 0.01099 1.87818 0.04834
				CHANNELS 3 Zrotation Yrotation Xrotation
				JOINT Neck
				{
					OFFSET 0 0 0
					CHANNELS 3 Zrotation Yrotation Xrotation
					JOINT Neck1
					{
						OFFSET 0.01702 1.40324 -0.12579
						CHANNELS 3 Zrotation Yrotation Xrotation
						JOINT Head
						{
							OFFSET -0.04239 1.38587 -0.01614
							CHANNELS 3 Zrotation Yrotation Xrotation
							End Site
							{
								OFFSET -0.02510 1.47031 -0.00154
							}
						}
					}
				}
				JOINT LeftShoulder
				{
					OFFSET 0 0 0
					CHANNELS 3 Zrotation Yrotation Xrotation
					JOINT LeftArm
					{
						OFFSET 2.95699 0.62343 0.11653
						CHANNELS 3 Zrotation Yrotation Xrotation
						JOINT LeftForeArm
						{
							OFFSET 4.68382 -0.00000 -0.00000
							CHANNELS 3 Zrotation Yrotation Xrotation
							JOINT LeftHand
							{
								OFFSET 2.98124 -0.00000 -0.00000
								CHANNELS 3 Zrotation Yrotation Xrotation
								JOINT LeftFingerBase
								{
									OFFSET 0 0 0
									CHANNELS 3 Zrotation Yrotation Xrotation
									JOINT LeftHandIndex1
									{
										OFFSET 0.70759 -0.00000 0.00000
										CHANNELS 3 Zrotation Yrotation Xrotation
										End Site
										{
											OFFSET 0.57048 -0.00000 0.00000
										}
									}
								}
								JOINT LThumb
								{
									OFFSET 0 0 0
									CHANNELS 3 Zrotation Yrotation Xrotation
									End Site
									{
										OFFSET 0.57919 -0.00000 0.57919
									}
								}
							}
						}
					}
				}
				JOINT RightShoulder
				{
					OFFSET 0 0 0
					CHANNELS 3 Zrotation Yrotation Xrotation
					JOINT RightArm
					{
						OFFSET -2.99027 0.88714 -0.02793
						CHANNELS 3 Zrotation Yrotation Xrotation
						JOINT RightForeArm
						{
							OFFSET -4.75876 -0.00000 -0.00000
							CHANNELS 3 Zrotation Yrotation Xrotation
							JOINT RightHand
							{
								OFFSET -2.93293 -0.00000 -0.00000
								CHANNELS 3 Zrotation Yrotation Xrotation
								JOINT RightFingerBase
								{
									OFFSET 0 0 0
									CHANNELS 3 Zrotation Yrotation Xrotation
									JOINT RightHandIndex1
									{
										OFFSET -0.83175 -0.00000 0.00000
										CHANNELS 3 Zrotation Yrotation Xrotation
										End Site
										{
											OFFSET -0.67058 -0.00000 0.00000
										}
									}
								}
								JOINT RThumb
								{
									OFFSET 0 0 0
									CHANNELS 3 Zrotation Yrotation Xrotation
									End Site
									{
										OFFSET -0.68082 -0.00000 0.68082
									}
								}
							}
						}
					}
				}
			}
		}
	}
}
MOTION
Frames: 13
Frame Time: .0083333
-13.0529 16.1382 -0.7229 -378.3010 -96.2827 390.5670 0.0000 0.0000 0.0000 -26.7869 -4.4316 2.4773 1.3007 7.2253 20.3845 1.2194 -7.9066 -19.7453 0.0483 -1.4181 -3.8999 0.0000 0.0000 0.0000 21.4563 11.6662 -31.6041 -0.3565 -3.8358 10.6152 0.0313 -7.5051 4.5283 -0.0902 1.9374 -5.3327 -9.0907 -5.2361 -17.8379 2.5584 -5.7873 -5.6119 6.5837 -3.0311 5.0017 -8.3324 -9.3621 16.7813 3.2148 -14.0812 -12.0846 3.5572 -6.7444 -5.5534 -0.0000 -0.0000 0.0000 -92.0501 -13.6499 7.6751 12.8629 -21.0860 -2.4037 -0.0000 -0.0000 30.2353 9.4515 22.4555 3.6384 -7.1250 0.0000 -0.0000 -19.6957 51.6345 -3.3259 -0.0000 -0.0000 0.0000 88.4161 -12.2371 -28.8357 -7.8713 13.3440 -0.9222 0.0000 0.0000 35.1680 -13.4834 5.8887 -1.4092 7.1250 -0.0000 -0.0000 9.7903 -23.9356 5.0474
-13.1468 16.1531 -0.7838 -376.3180 -95.8322 389.7320 0.0000 0.0000 0.0000 -25.8285 -4.2834 2.1504 1.1434 6.7903 19.0955 1.0087 -8.7586 -18.0516 0.0537 -1.4959 -4.1143 0.0000 0.0000 0.0000 21.3064 13.2577 -33.7728 -0.5823 -4.8861 13.5839 0.0953 -8.7860 4.1267 -0.0741 1.7559 -4.8317 -9.2908 -5.4320 -18.3425 2.8501 -6.0306 -6.0695 6.9390 -3.1463 4.8587 -8.2732 -9.4263 17.1925 3.3549 -14.1864 -12.6381 3.6501 -6.7869 -5.7824 -0.0000 -0.0000 0.0000 -92.4004 -13.1385 7.2828 12.8713 -21.0983 -2.4068 -0.0000 -0.0000 30.7841 8.7458 22.6911 3.3963 -7.1250 0.0000 -0.0000 -20.4851 51.7391 -3.5228 -0.0000 -0.0000 0.0000 88.5815 -12.3643 -28.8574 -7.9167 13.4177 -0.9327 0.0000 0.0000 34.2759 -13.4508 5.4190 -1.2939 7.1250 -0.0000 -0.0000 9.8431 -24.4121 4.9653
-13.3934 16.1457 -0.7752 -375.3220 -96.8941 387.5670 0.0000 0.0000 0.0000 -26.7949 -3.6200 4.2708 1.1213 6.7265 18.9075 0.9728 -7.5681 -17.6367 0.1479 -2.4783 -6.8296 0.0000 0.0000 0.0000 21.9654 12.0201 -32.8507 -0.7126 -5.3947 15.0379 0.0451 -6.9362 3.6792 -0.0486 1.4227 -3.9128 -8.6988 -4.9312 -18.7670 2.4888 -5.3835 -5.6343 6.3341 -2.8485 5.3539 -8.2342 -9.4662 17.6318 3.3338 -14.2774 -12.8521 3.6820 -6.8194 -5.9210 -0.0000 -0.0000 0.0000 -92.6589 -12.2360 7.1031 12.8219 -21.0257 -2.3890 -0.0000 -0.0000 30.8501 8.4880 22.7244 3.2995 -7.1250 0.0000 -0.0000 -20.7468 51.7275 -3.5650 -0.0000 -0.0000 0.0000 88.6996 -12.7084 -29.5414 -7.8350 13.2851 -0.9138 0.0000 0.0000 34.0786 -13.4167 5.2050 -1.2397 7.1250 -0.0000 -0.0000 9.8821 -24.6295 4.9350
-13.6255 16.1582 -0.7450 -385.5370 -95.5743 396.8850 0.0000 0.0000 0.0000 -27.3558 -4.0912 6.3903 1.1510 6.8119 19.1593 0.9110 -8.2784 -17.1404 0.2362 -3.1279 -8.6350 0.0000 0.0000 0.0000 21.9907 8.9231 -32.6546 -0.8391 -5.8431 16.3299 0.0326 -5.4241 2.6872 -0.0207 0.9299 -2.5561 -8.2602 -5.3537 -18.6159 2.1099 -5.9874 -5.5288 5.5170 -3.1383 5.4191 -8.0849 -9.5073 17.7582 3.0720 -14.3394 -12.6231 3.5831 -6.8399 -5.8964 -0.0000 0.0000 0.0000 -92.8858 -11.2038 6.7716 12.6317 -20.7453 -2.3212 -0.0000 -0.0000 30.8739 8.9830 22.3455 3.4394 -7.1250 0.0000 -0.0000 -20.0858 51.4537 -3.3049 -0.0000 0.0000 0.0000 88.7393 -12.9390 -31.7285 -7.6791 13.0313 -0.8783 0.0000 0.0000 35.7374 -13.0558 5.1454 -1.1914 7.1250 -0.0000 -0.0000 10.1534 -24.6972 5.0584
-13.7311 16.1749 -0.7857 -380.4980 -94.6509 392.3100 0.0000 0.0000 0.0000 -25.8879 -3.9813 5.8807 1.1576 6.8309 19.2154 0.7104 -9.7415 -15.5132 0.2815 -3.4121 -9.4283 0.0000 0.0000 0.0000 22.4321 10.1093 -33.0688 -0.9926 -6.3408 17.7764 0.0767 -6.4725 2.1386 -0.0001 0.0494 -0.1358 -7.8428 -5.5265 -18.3733 2.5020 -6.3625 -5.8759 5.6408 -3.3059 4.9805 -7.9204 -9.5862 17.5948 2.8826 -14.4200 -12.5368 3.4949 -6.8739 -5.8646 0.0000 -0.0000 0.0000 -93.2745 -10.5277 5.9587 12.3571 -20.3380 -2.2248 -0.0000 -0.0000 31.5409 9.3516 22.0971 3.5449 -7.1250 0.0000 -0.0000 -19.6141 51.2799 -3.1362 0.0000 -0.0000 0.0000 88.7425 -12.6518 -34.4687 -7.5666 12.8479 -0.8532 0.0000 0.0000 38.0476 -12.7105 5.0743 -1.1429 7.1250 -0.0000 -0.0000 10.4141 -24.7757 5.1731
-13.8467 16.1757 -0.8751 -364.6960 -96.3523 377.6380 0.0000 0.0000 0.0000 -24.6050 -2.3679 3.9251 1.2591 7.1133 20.0514 0.5929 -10.3648 -14.5272 0.3651 -3.8813 -10.7429 0.0000 0.0000 0.0000 23.3494 12.9384 -33.4100 -1.0993 -6.6623 18.7186 0.0907 -6.6357 1.7867 -0.0156 -0.8072 2.2185 -7.7337 -5.0043 -19.5657 3.0856 -5.6904 -6.1048 6.3239 -2.9980 5.2937 -7.7901 -9.6461 17.2790 2.6931 -14.4740 -12.4821 3.4021 -6.8941 -5.8178 -0.0000 -0.0000 0.0000 -93.7796 -10.0526 4.6628 12.0718 -19.9122 -2.1267 -0.0000 -0.0000 32.8059 9.6491 21.9186 3.6315 -7.1250 0.0000 -0.0000 -19.2457 51.1594 -3.0152 -0.0000 -0.0000 0.0000 88.6919 -12.2831 -36.0144 -7.4920 12.7262 -0.8367 0.0000 0.0000 39.2654 -12.6504 5.0701 -1.1364 7.1250 -0.0000 -0.0000 10.4590 -24.7810 5.1948
-14.0660 16.1828 -0.8942 -358.9750 -97.9524 372.3110 0.0000 0.0000 0.0000 -24.3848 -0.9726 3.2624 1.4665 7.6531 21.6653 0.5825 -10.4491 -14.4482 0.4076 -4.0987 -11.3546 0.0000 0.0000 0.0000 24.6115 12.3972 -33.1396 -1.1237 -6.7333 18.9276 0.0393 -4.3468 1.1391 -0.0313 -1.1426 3.1413 -6.7399 -4.4454 -21.4760 3.1886 -5.0480 -5.8465 5.9363 -2.7242 6.3963 -7.6577 -9.6419 17.0207 2.5111 -14.4434 -12.3919 3.3073 -6.8747 -5.7733 -0.0000 -0.0000 0.0000 -94.2371 -9.4571 3.2442 11.8178 -19.5309 -2.0410 -0.0000 -0.0000 34.0735 10.0155 21.6432 3.7268 -7.1250 0.0000 -0.0000 -18.7679 50.9572 -2.8402 -0.0000 -0.0000 0.0000 88.6023 -11.8823 -38.0621 -7.3275 12.4569 -0.8008 0.0000 0.0000 41.2899 -12.5367 5.5352 -1.2287 7.1250 -0.0000 -0.0000 10.5105 -24.3149 5.3368
-14.2061 16.2022 -0.8949 -359.6500 -97.1875 372.4280 0.0000 0.0000 0.0000 -24.0518 -0.8421 3.3801 1.6569 8.1114 23.0530 0.3980 -11.7534 -13.0247 0.3574 -3.8408 -10.6293 0.0000 0.0000 0.0000 24.6723 11.4912 -32.3982 -1.1597 -6.8368 19.2329 0.0506 -4.5085 0.5976 -0.0530 -1.4860 4.0872 -6.6371 -4.7038 -21.0009 3.1745 -5.4136 -5.7148 5.7754 -2.8948 6.3442 -7.4885 -9.6658 17.0181 2.3308 -14.4710 -12.5168 3.2381 -6.8751 -5.8382 -0.0000 0.0000 0.0000 -94.6550 -8.8468 1.7413 11.4017 -18.9014 -1.9040 -0.0000 -0.0000 35.2787 10.3753 21.1442 3.7785 -7.1250 0.0000 -0.0000 -18.1976 50.5390 -2.5574 -0.0000 0.0000 0.0000 88.5259 -11.4378 -39.9462 -7.2126 12.2686 -0.7762 0.0000 0.0000 43.0446 -12.1203 5.7177 -1.2257 7.1250 -0.0000 -0.0000 10.8046 -24.1404 5.5358
-14.3102 16.2308 -0.8936 -356.1750 -94.4342 367.4730 0.0000 0.0000 0.0000 -22.7054 -1.7524 4.4954 1.8324 8.5080 24.2679 0.0763 -13.6566 -10.4905 0.2711 -3.3492 -9.2525 0.0000 0.0000 0.0000 25.0985 9.7855 -31.0241 -1.2120 -6.9837 19.6672 0.1101 -6.1546 -0.2875 -0.0834 -1.8633 5.1281 -6.4540 -5.5351 -19.5924 3.2788 -6.5467 -4.9662 5.5194 -3.4400 6.6011 -7.3122 -9.8029 16.8263 2.4288 -14.6143 -13.1075 3.2708 -6.9418 -5.9925 -0.0000 -0.0000 0.0000 -95.0284 -9.1579 0.0273 10.8275 -18.0233 -1.7222 -0.0000 -0.0000 36.9733 10.8458 20.7087 3.8758 -7.1250 0.0000 -0.0000 -17.5599 50.1957 -2.3113 -0.0000 -0.0000 0.0000 88.5637 -10.1471 -40.9383 -7.1909 12.2330 -0.7716 0.0000 0.0000 43.5553 -11.7434 5.2237 -1.0843 7.1250 -0.0000 -0.0000 11.1186 -24.6433 5.5705
-14.4543 16.2493 -0.9176 -350.6750 -94.5638 361.7230 0.0000 0.0000 0.0000 -21.9766 -1.2668 4.0285 2.0731 9.0166 25.8473 -0.1135 -14.4461 -8.7755 0.2063 -2.9244 -8.0683 0.0000 0.0000 0.0000 25.8681 9.1676 -30.2928 -1.2220 -7.0114 19.7492 0.0949 -5.5415 -0.9830 -0.0933 -1.9700 5.4228 -5.9976 -5.4458 -18.8917 3.4276 -6.5921 -5.3727 5.4781 -3.4381 5.7676 -7.3303 -9.7950 17.0603 2.2192 -14.6378 -12.6950 3.2062 -6.9464 -5.9138 0.0000 0.0000 0.0000 -95.4183 -7.4824 -1.2324 10.6199 -17.7033 -1.6585 -0.0000 -0.0000 37.8771 11.2414 20.7575 4.0294 -7.1250 0.0000 -0.0000 -17.2078 50.3041 -2.3093 0.0000 0.0000 0.0000 88.5561 -10.6199 -41.0030 -7.2381 12.3104 -0.7816 0.0000 0.0000 43.3457 -11.5166 5.1332 -1.0444 7.1250 -0.0000 -0.0000 11.2931 -24.7379 5.6359
-14.5877 16.2676 -0.9469 -348.2490 -94.6833 359.1640 0.0000 0.0000 0.0000 -21.4007 -0.8408 3.3049 2.3542 9.5679 27.5883 -0.3057 -15.2135 -6.9233 0.1104 -2.1423 -5.8991 0.0000 0.0000 0.0000 26.3374 8.6686 -29.6413 -1.2136 -6.9883 19.6808 0.0786 -4.9693 -1.5854 -0.1031 -2.0707 5.7011 -5.9742 -5.5478 -18.7993 3.5895 -6.7482 -5.3817 5.6053 -3.5158 5.7497 -7.3477 -9.7562 17.1201 2.2466 -14.5925 -12.7574 3.2203 -6.9230 -5.9423 -0.0000 -0.0000 0.0000 -95.8465 -6.4744 -2.4026 10.5330 -17.5689 -1.6322 -0.0000 -0.0000 38.2650 11.3785 21.1037 4.1444 -7.1250 0.0000 -0.0000 -17.2297 50.6588 -2.4658 -0.0000 -0.0000 0.0000 88.5179 -10.3785 -40.7828 -7.2974 12.4076 -0.7943 0.0000 0.0000 43.0177 -11.1232 5.1694 -1.0149 7.1250 -0.0000 -0.0000 11.5806 -24.7082 5.7933
-14.7211 16.2837 -0.9824 -344.6070 -94.7823 355.4370 0.0000 0.0000 0.0000 -20.6438 -0.4283 2.5030 2.6474 10.1012 29.3051 -0.5096 -15.8806 -4.6097 0.0567 -1.5360 -4.2250 0.0000 0.0000 0.0000 26.8895 8.3159 -28.9911 -1.2068 -6.9695 19.6250 0.0652 -4.5422 -2.0891 -0.0993 -2.0320 5.5940 -5.9057 -5.6470 -18.8616 3.7609 -6.8983 -5.3062 5.7038 -3.5947 5.9014 -7.2705 -9.7880 17.0264 2.1994 -14.6214 -12.8156 3.1948 -6.9351 -5.9537 0.0000 -0.0000 0.0000 -96.2057 -5.8721 -4.1426 10.2259 -17.0921 -1.5407 -0.0000 -0.0000 39.4196 11.1806 21.8249 4.2026 -7.1250 0.0000 -0.0000 -17.7447 51.3191 -2.8375 0.0000 -0.0000 0.0000 88.6008 -10.1333 -39.5494 -7.4618 12.6767 -0.8300 0.0000 0.0000 41.4883 -10.8193 5.0232 -0.9587 7.1250 -0.0000 -0.0000 11.8171 -24.8586 5.8743
-14.8430 16.3030 -1.0033 -344.8770 -94.7795 355.9290 0.0000 0.0000 0.0000 -20.3554 -0.3426 1.3435 2.9684 10.6438 31.0878 -0.6671 -16.1761 -2.1497 0.0420 -1.3227 -3.6371 0.0000 0.0000 0.0000 27.0782 7.7521 -28.8251 -1.1909 -6.9248 19.4928 0.0444 -3.8416 -2.3482 -0.0623 -1.6101 4.4292 -5.9186 -5.7143 -19.0917 3.7474 -6.9759 -5.3416 5.6592 -3.6354 5.9950 -7.0429 -9.8833 16.7282 2.0871 -14.6864 -12.6683 3.1092 -6.9752 -5.8800 -0.0000 -0.0000 0.0000 -96.3687 -5.4537 -6.3332 9.7040 -16.2752 -1.3908 -0.0000 -0.0000 41.3475 10.8615 22.2764 4.1600 -7.1250 0.0000 -0.0000 -18.2626 51.6982 -3.0986 -0.0000 -0.0000 0.0000 88.8275 -9.9889 -37.7240 -7.6789 13.0310 -0.8783 0.0000 0.0000 39.2332 -10.8165 5.0516 -0.9638 7.1250 -0.0000 -0.0000 11.8167 -24.8305 5.8820
